<svg width="28" height="28" viewBox="0 0 24 25" fill="none" xmlns="http://www.w3.org/2000/svg">
<path fill-rule="evenodd" clip-rule="evenodd" d="M5 4.5C4.44772 4.5 4 4.94772 4 5.5V19.5C4 20.0523 4.44772 20.5 5 20.5H19C19.5523 20.5 20 20.0523 20 19.5V5.5C20 4.94772 19.5523 4.5 19 4.5H5ZM2 5.5C2 3.84315 3.34315 2.5 5 2.5H19C20.6569 2.5 22 3.84315 22 5.5V19.5C22 21.1569 20.6569 22.5 19 22.5H5C3.34315 22.5 2 21.1569 2 19.5V5.5Z" fill="black"/>
<path fill-rule="evenodd" clip-rule="evenodd" d="M8.5 8.5C8.22386 8.5 8 8.72386 8 9C8 9.27614 8.22386 9.5 8.5 9.5C8.77614 9.5 9 9.27614 9 9C9 8.72386 8.77614 8.5 8.5 8.5ZM6 9C6 7.61929 7.11929 6.5 8.5 6.5C9.88071 6.5 11 7.61929 11 9C11 10.3807 9.88071 11.5 8.5 11.5C7.11929 11.5 6 10.3807 6 9Z" fill="black"/>
<path fill-rule="evenodd" clip-rule="evenodd" d="M15.2929 9.79289C15.6834 9.40237 16.3166 9.40237 16.7071 9.79289L21.7071 14.7929C22.0976 15.1834 22.0976 15.8166 21.7071 16.2071C21.3166 16.5976 20.6834 16.5976 20.2929 16.2071L16 11.9142L5.70711 22.2071C5.31658 22.5976 4.68342 22.5976 4.29289 22.2071C3.90237 21.8166 3.90237 21.1834 4.29289 20.7929L15.2929 9.79289Z" fill="black"/>
</svg>
