
<svg xmlns="http://www.w3.org/2000/svg" viewBox="0 0 1440 900" width="100%" role="img" aria-label="PocketClass Notes – flat hero with orange accent and New Note modal">
  <defs>
    <style>.font{font-family:-apple-system,BlinkMacSystemFont,"Segoe UI",Roboto,"Helvetica Neue",Arial,"Noto Sans","Apple Color Emoji","Segoe UI Emoji",sans-serif}</style>
    <filter id="shadow-md" x="-50%" y="-50%" width="200%" height="200%"><feDropShadow dx="0" dy="6" stdDeviation="16" flood-color="#0F172A" flood-opacity="0.15"/></filter>
    <filter id="shadow-sm" x="-50%" y="-50%" width="200%" height="200%"><feDropShadow dx="0" dy="4" stdDeviation="8" flood-color="#0F172A" flood-opacity="0.12"/></filter>
    <circle id="dot" r="4" fill="#FFB199"/>
    <g id="icon-edit"><rect width="18" height="18" rx="4" fill="#FFF2EF"/><path d="M6 11l6-6 1.5 1.5-6 6L6 13v-2zM9 6l3 3" stroke="#FF4D4F" stroke-width="1.5" fill="none" stroke-linecap="round"/></g>
    <g id="icon-trash"><rect width="18" height="18" rx="4" fill="#FFF5F7"/><path d="M6 6h6M7 6l.5-1h3L11 6m-4 2v5m3-5v5" stroke="#E11D48" stroke-width="1.5" fill="none" stroke-linecap="round"/></g>
  </defs>
  <rect width="1440" height="900" fill="#F8FAFC"/>
  <g transform="translate(0,0)">
    <rect width="1440" height="72" fill="#FFFFFF"/>
    <text x="32" y="46" font-size="20" font-weight="700" fill="#0F172A" class="font">pocketclass</text>
    <g transform="translate(600,20)"><rect width="104" height="32" rx="8" fill="#F3F4F6"/><text x="20" y="21" font-size="14" fill="#111827" class="font">Overview</text></g>
    <g transform="translate(720,20)"><rect width="104" height="32" rx="8" fill="#F3F4F6"/><text x="20" y="21" font-size="14" fill="#111827" class="font">Bookings</text><circle cx="94" cy="10" r="10" fill="#111827"/><text x="90.5" y="14.5" font-size="12" fill="#fff" class="font">2</text></g>
    <g transform="translate(840,16)"><rect width="80" height="40" rx="10" fill="#FF4D4F"/><text x="18" y="26" font-size="14" font-weight="700" fill="#FFFFFF" class="font">Notes</text></g>
    <g transform="translate(928,20)"><rect width="86" height="32" rx="8" fill="#F3F4F6"/><text x="20" y="21" font-size="14" fill="#111827" class="font">Reviews</text></g>
  </g>
  <g transform="translate(0,72)">
    <g>
      <rect x="0" y="0" width="440" height="828" fill="#FFFFFF"/>
      <g transform="translate(24,24)"><rect width="392" height="160" rx="16" fill="#FFFFFF" stroke="#E5E7EB"/><circle cx="70" cy="80" r="36" fill="#FF4D4F"/><text x="120" y="76" font-size="20" font-weight="700" fill="#0F172A" class="font">Jordan Lau</text><text x="120" y="104" font-size="14" fill="#64748B" class="font">jordanlau423@gmail.com</text><text x="120" y="126" font-size="14" fill="#94A3B8" class="font">+123456789</text></g>
      <g transform="translate(24,204)"><rect width="392" height="88" rx="14" fill="#FFFFFF" stroke="#E5E7EB"/><text x="20" y="36" font-size="12" fill="#64748B" class="font">Total Sales</text><text x="20" y="64" font-size="22" font-weight="800" fill="#0F172A" class="font">CA$ 1,020.00</text></g>
      <g transform="translate(24,304)"><rect width="392" height="88" rx="14" fill="#FFFFFF" stroke="#E5E7EB"/><text x="20" y="36" font-size="12" fill="#64748B" class="font">Total Bookings</text><text x="20" y="64" font-size="22" font-weight="800" fill="#0F172A" class="font">6</text></g>
      <g transform="translate(24,404)"><rect width="392" height="88" rx="14" fill="#FFFFFF" stroke="#E5E7EB"/><text x="20" y="36" font-size="12" fill="#64748B" class="font">Avg. per Booking</text><text x="20" y="64" font-size="22" font-weight="800" fill="#0F172A" class="font">CA$ 120.00</text></g>
    </g>
    <g transform="translate(480,0)">
      <rect width="936" height="828" fill="#FFFFFF"/>
      <g transform="translate(24,24)"><text x="0" y="0" font-size="20" font-weight="800" fill="#0F172A" class="font">Client Notes</text><g transform="translate(720,-10)"><rect width="168" height="40" rx="10" fill="#FF4D4F"/><text x="20" y="26" font-size="14" font-weight="700" fill="#FFFFFF" class="font">Add New Note</text></g></g>
      <g transform="translate(24,88)" filter="url(#shadow-sm)"><rect width="888" height="116" rx="16" fill="#FFFFFF" stroke="#E5E7EB"/><text x="24" y="44" font-size="16" font-weight="700" fill="#0F172A" class="font">Chest Press and Squats Workout</text><text x="24" y="72" font-size="14" fill="#475569" class="font">Did 150 lbs chest press and 65 squats</text><g transform="translate(828,44)"><use href="#icon-edit"/><g transform="translate(26,0)"><use href="#icon-trash"/></g></g></g>
    </g>
  </g>
  <rect x="0" y="0" width="1440" height="900" fill="#0F172A" opacity="0.18"/>
  <g transform="translate(180,140)" filter="url(#shadow-md)">
    <rect width="1080" height="600" rx="22" fill="#FFFFFF" stroke="#E5E7EB"/>
    <text x="32" y="56" font-size="28" font-weight="800" fill="#0F172A" class="font">New Note</text>
    <g transform="translate(32,84)"><rect width="680" height="56" rx="12" fill="#FFF2EF" stroke="#FFDAD4"/><text x="20" y="36" font-size="18" font-weight="700" fill="#0F172A" class="font">Leg Day PRs &amp; Accessory Work</text><g transform="translate(700,0)"><rect width="300" height="56" rx="12" fill="#FF4D4F"/><text x="24" y="36" font-size="16" font-weight="700" fill="#FFFFFF" class="font">Generate Title</text></g></g>
    <g transform="translate(32,160)"><rect width="1016" height="340" rx="14" fill="#FFFFFF" stroke="#E5E7EB"/><g transform="translate(32,32)"><use href="#dot"/><text x="16" y="6" font-size="16" fill="#0F172A" class="font">Back squat — 225 × 5, 245 × 3 (PR)</text><use href="#dot" transform="translate(0,36)"/><text x="16" y="42" font-size="16" fill="#0F172A" class="font">Romanian deadlift — 205 × 8, tempo 3-0-1</text><use href="#dot" transform="translate(0,72)"/><text x="16" y="78" font-size="16" fill="#0F172A" class="font">Bench press — 185 × 5, 200 × 3</text><use href="#dot" transform="translate(0,108)"/><text x="16" y="114" font-size="16" fill="#0F172A" class="font">Bicep curls — 35 lbs × 10 each arm</text><use href="#dot" transform="translate(0,144)"/><text x="16" y="150" font-size="16" fill="#0F172A" class="font">Incline DB press — 50 lbs × 12</text><use href="#dot" transform="translate(0,180)"/><text x="16" y="186" font-size="16" fill="#0F172A" class="font">Warm-up: 5 min jog, dynamic stretch</text></g></g>
    <g transform="translate(32,520)"><rect width="180" height="52" rx="12" fill="#0F172A"/><text x="26" y="34" font-size="16" font-weight="700" fill="#FFFFFF" class="font">Refine Notes</text><g transform="translate(740,0)"><rect width="120" height="52" rx="12" fill="#F3F4F6" stroke="#E5E7EB"/><text x="32" y="34" font-size="16" font-weight="700" fill="#0F172A" class="font">Cancel</text></g><g transform="translate(876,0)"><rect width="140" height="52" rx="12" fill="#FF4D4F"/><text x="28" y="34" font-size="16" font-weight="700" fill="#FFFFFF" class="font">Add Note</text></g></g>
  </g>
</svg>
