<svg xmlns="http://www.w3.org/2000/svg" version="1.1" viewBox="-5.0 -10.0 110.0 135.0">
 <path d="m61.707 18.953c-0.60938-0.34375-1.3789-0.24219-1.875 0.25391l-26.562 26.562c-0.34375 0.34375-0.50781 0.82812-0.44531 1.3125s0.35156 0.91016 0.77344 1.1484l9.9219 5.6719-5.9844 25.43c-0.16406 0.6875 0.15625 1.3984 0.78125 1.7344 0.23438 0.125 0.48828 0.1875 0.74219 0.1875 0.42188 0 0.83203-0.16797 1.1367-0.48828l26.562-28.125c0.32813-0.34766 0.48047-0.82812 0.41016-1.3047-0.070313-0.47656-0.35156-0.89063-0.76953-1.125l-9.9102-5.6641 5.9609-23.852c0.17188-0.67969-0.13281-1.3906-0.74609-1.7383zm-8.5352 25.98c-0.17188 0.67969 0.13281 1.3906 0.74219 1.7344l9.2109 5.2656-21.211 22.461 4.9219-20.91c0.15625-0.67188-0.14453-1.3711-0.74609-1.7148l-9.1641-5.2344 21.125-21.125-4.8828 19.527z"/>
 <path d="m85.355 14.645c-9.4414-9.4414-22-14.645-35.355-14.645s-24.93 4.8008-34.234 13.555l-2.1641-2.1641c-0.42578-0.42578-1.0547-0.57031-1.6211-0.36719-0.56641 0.19922-0.96875 0.70312-1.0352 1.3047l-1.5625 14.062c-0.054687 0.50781 0.14063 1.0117 0.52344 1.3516 0.38281 0.33594 0.91016 0.46094 1.4062 0.33984l12.5-3.125c0.54688-0.13672 0.97656-0.55469 1.125-1.1016 0.14844-0.54297 0-1.125-0.39844-1.5234l-2.1406-2.1406c7.5312-6.9883 17.273-10.812 27.602-10.812 22.398 0 40.625 18.227 40.625 40.625 0 4.7188-0.80469 9.3438-2.3906 13.75-0.14062 0.39062-0.11719 0.82031 0.054687 1.1953 0.17578 0.375 0.49219 0.66406 0.88281 0.80469l5.8828 2.1172c0.17187 0.0625 0.35156 0.09375 0.53125 0.09375 0.64062 0 1.2422-0.39453 1.4688-1.0312 1.9531-5.4219 2.9375-11.117 2.9375-16.922 0-13.355-5.2031-25.91-14.645-35.355zm9.2695 49.746-2.9453-1.0586c1.375-4.2969 2.0703-8.7734 2.0703-13.328 0-11.688-4.5508-22.672-12.812-30.934-8.2656-8.2656-19.25-12.812-30.934-12.812s-22.672 4.5508-30.934 12.812c-0.60937 0.60938-0.60937 1.6016 0 2.2109l1.3164 1.3164-7.6445 1.9102 0.95312-8.5977 0.95313 0.95312c0.29297 0.29297 0.69141 0.45703 1.1055 0.45703 0.41406 0 0.8125-0.16406 1.1055-0.45703 8.8516-8.8516 20.625-13.73 33.148-13.73 25.848 0 46.875 21.027 46.875 46.875 0 4.9219-0.75781 9.75-2.25 14.391z"/>
 <path d="m90.09 72.262c-0.38281-0.33594-0.91016-0.46094-1.4062-0.33984l-12.5 3.125c-0.54688 0.13672-0.97656 0.55469-1.125 1.1016-0.14844 0.54297 0 1.125 0.39844 1.5234l2.1406 2.1406c-7.5312 6.9883-17.273 10.812-27.602 10.812-22.398 0-40.625-18.227-40.625-40.625 0-4.7188 0.80469-9.3438 2.3906-13.75 0.14062-0.39062 0.11719-0.82031-0.054688-1.1953-0.17578-0.375-0.49219-0.66406-0.88281-0.80469l-5.8828-2.1172c-0.8125-0.29297-1.707 0.12891-2 0.94141-1.9531 5.4258-2.9414 11.121-2.9414 16.926 0 13.355 5.2031 25.91 14.645 35.355 9.4453 9.4453 22 14.645 35.355 14.645s24.93-4.8008 34.234-13.555l2.1641 2.1641c0.42187 0.42188 1.0547 0.57031 1.6211 0.36719 0.56641-0.19922 0.96875-0.70312 1.0352-1.3047l1.5625-14.062c0.054687-0.50781-0.14063-1.0117-0.52344-1.3516zm-3.7852 11.832-0.95313-0.95312c-0.29297-0.29297-0.69141-0.45703-1.1055-0.45703-0.41406 0-0.8125 0.16406-1.1055 0.45703-8.8516 8.8516-20.625 13.73-33.148 13.73-25.848 0-46.875-21.027-46.875-46.875 0-4.9219 0.75781-9.75 2.25-14.391l2.9453 1.0586c-1.375 4.2969-2.0703 8.7734-2.0703 13.328 0 11.688 4.5508 22.672 12.812 30.934 8.2656 8.2656 19.25 12.812 30.934 12.812 11.684 0 22.672-4.5508 30.934-12.812 0.60938-0.60938 0.60938-1.6016 0-2.2109l-1.3164-1.3164 7.6445-1.9102-0.95312 8.5977z"/>
<text x="0.0" y="117.5" font-size="5.0" font-weight="bold" font-family="Arbeit Regular, Helvetica, Arial-Unicode, Arial, Sans-serif" fill="#000000">Created by Edy Subiyanto</text><text x="0.0" y="122.5" font-size="5.0" font-weight="bold" font-family="Arbeit Regular, Helvetica, Arial-Unicode, Arial, Sans-serif" fill="#000000">from Noun Project</text></svg>